PathFileType	4	(X/Y/Z)	C:\Users\86182\Documents\cortex\Trimmed_M1_L9.trc
DataRate	CameraRate	NumFrames	NumMarkers	Units	OrigDataRate	OrigDataStartFrame	OrigNumFrames
100.00	100.00	       140	2	mm	100.00	541	       901
Frame#	Time	gripper			box			
		X1	Y1	Z1	X2	Y2	Z2	

541	5.400	198.53810	195.01190	293.07312	198.52126	194.80058	150.34090	
542	5.410	198.52826	195.01048	293.07837	198.49484	194.79092	150.33176	
543	5.420	198.56340	195.01175	293.06598	198.48730	194.79321	150.35698	
544	5.430	198.57158	195.01218	293.06168	198.49979	194.79820	150.36356	
545	5.440	198.53281	195.01288	293.07056	198.55322	194.80807	150.32901	
546	5.450	198.53810	195.01190	293.07312	198.50110	194.79688	150.35393	
547	5.460	198.53810	195.01190	293.07312	198.49718	194.79401	150.34476	
548	5.470	198.53810	195.01190	293.07312	198.49283	194.79468	150.34926	
549	5.480	198.53810	195.01190	293.07312	198.54689	194.81165	150.35257	
550	5.490	198.53810	195.01190	293.07312	198.49464	194.79674	150.36397	
551	5.500	198.53810	195.01190	293.07312	198.48993	194.79056	150.33783	
552	5.510	198.53810	195.01190	293.07312	198.48547	194.79234	150.35524	
553	5.520	198.54172	195.01189	293.07211	198.50180	194.79327	150.33305	
554	5.530	198.52826	195.01048	293.07837	198.50656	194.79945	150.35918	
555	5.540	198.50737	195.01274	293.07327	198.51213	194.79623	150.33218	
556	5.550	198.51941	195.01537	293.06415	198.45900	194.78870	150.34592	
557	5.560	198.51451	195.01465	293.06677	198.53223	194.80818	150.34482	
558	5.570	198.53810	195.01190	293.07312	198.48970	194.78946	150.33220	
559	5.580	198.54897	195.01184	293.07007	198.51637	194.79440	150.31494	
560	5.590	198.53435	195.01082	293.07602	198.52151	194.79755	150.36890	
561	5.600	198.53281	195.01288	293.07056	198.52422	194.80005	150.33310	
562	5.610	198.53281	195.01288	293.07056	198.53786	194.80365	150.33015	
563	5.620	198.56174	195.01271	293.06238	198.51466	194.78761	150.40424	
564	5.630	198.55261	195.01183	293.06903	198.54077	194.80310	150.32239	
565	5.640	198.53012	195.01338	293.06931	198.56383	194.81218	150.33392	
566	5.650	198.53810	195.01190	293.07312	198.56311	194.80989	150.32262	
567	5.660	198.54897	195.01184	293.07007	198.50488	194.79277	150.32526	
568	5.670	198.55983	195.01178	293.06699	198.54332	194.81110	150.36203	
569	5.680	198.53810	195.01190	293.07312	198.53844	194.81073	150.36815	
570	5.690	198.55013	195.01146	293.07034	198.50055	194.79463	150.34258	
571	5.700	198.53799	195.01080	293.07501	198.54517	194.81197	150.36380	
572	5.710	198.53320	195.01118	293.07574	198.48068	194.80261	150.37318	
573	5.720	198.53281	195.01288	293.07056	198.51096	194.80826	150.36078	
574	5.730	198.53810	195.01190	293.07312	198.49080	194.81177	150.35390	
575	5.740	198.51849	195.00908	293.08356	198.50269	194.80968	150.36244	
576	5.750	198.52744	195.01387	293.06799	198.52559	194.80814	150.36214	
577	5.760	198.50957	195.01395	293.06940	198.50395	194.80116	150.34012	
578	5.770	198.53564	195.01430	293.06366	198.50476	194.79861	150.35742	
579	5.780	198.53810	195.01190	293.07312	198.50342	194.79895	150.32881	
580	5.790	198.52478	195.01437	293.06674	198.49129	194.80803	150.36562	
581	5.800	198.53548	195.01239	293.07187	198.50815	194.79733	150.34297	
582	5.810	198.53810	195.01190	293.07312	198.54482	194.80602	150.33151	
583	5.820	198.54172	195.01189	293.07211	198.51514	194.80157	150.35657	
584	5.830	198.53281	195.01288	293.07056	198.46928	194.80339	150.36972	
585	5.840	198.53810	195.01190	293.07312	198.53148	194.80235	150.32719	
586	5.850	198.53810	195.01190	293.07312	198.53128	194.80595	150.34076	
587	5.860	198.53320	195.01118	293.07574	198.56023	194.82484	150.33777	
588	5.870	198.53810	195.01190	293.07312	198.54753	194.80791	150.32440	
589	5.880	198.53548	195.01239	293.07187	198.53523	194.80647	150.32408	
590	5.890	198.53810	195.01190	293.07312	198.49255	194.79732	150.32469	
591	5.900	198.53810	195.01190	293.07312	198.51465	194.80884	150.35129	
592	5.910	198.53810	195.01190	293.07312	198.47714	194.79733	150.36328	
593	5.920	198.53810	195.01190	293.07312	198.44160	194.80214	150.36838	
594	5.930	198.52744	195.01387	293.06799	198.44855	194.80339	150.36392	
595	5.940	198.53810	195.01190	293.07312	198.43251	194.79782	150.35968	
596	5.950	198.51671	195.01585	293.06284	198.46994	194.79033	150.34999	
597	5.960	198.53810	195.01190	293.07312	198.46764	194.80363	150.37370	
598	5.970	198.53810	195.01190	293.07312	198.47260	194.79338	150.35576	
599	5.980	198.53281	195.01288	293.07056	198.50606	194.79720	150.35751	
600	5.990	198.52744	195.01387	293.06799	198.54753	194.80791	150.32440	
601	6.000	198.51941	195.01537	293.06415	198.51904	194.79855	150.33353	
602	6.010	198.53810	195.01190	293.07312	198.49281	194.79587	150.36221	
603	6.020	198.53073	195.01083	293.07706	198.50763	194.80646	150.34995	
604	6.030	198.51122	195.00801	293.08746	198.53331	194.80322	150.32895	
605	6.040	198.53564	195.01155	293.07443	198.53659	194.80986	150.36636	
606	6.050	198.52275	195.01231	293.07324	198.52637	194.80208	150.34050	
607	6.060	198.53058	195.01167	293.07446	198.50514	194.80095	150.34349	
608	6.070	198.51363	195.00836	293.08618	198.51453	194.79935	150.34525	
609	6.080	198.53564	195.01155	293.07443	198.49130	194.80463	150.33389	
610	6.090	198.52744	195.01387	293.06799	198.47346	194.80157	150.35950	
611	6.100	198.52563	195.01097	293.07709	198.51067	194.80711	150.35509	
612	6.110	198.53810	195.01190	293.07312	198.48755	194.79454	150.33740	
613	6.120	198.52478	195.01437	293.06674	198.44348	194.79375	150.34602	
614	6.130	198.53810	195.01190	293.07312	198.46387	194.79259	150.34608	
615	6.140	198.53810	195.01190	293.07312	198.44289	194.80435	150.36507	
616	6.150	198.51941	195.01537	293.06415	198.46307	194.80479	150.33472	
617	6.160	198.53810	195.01190	293.07312	198.44608	194.80611	150.37595	
618	6.170	198.53548	195.01239	293.07187	198.45767	194.79706	150.36089	
619	6.180	198.53281	195.01288	293.07056	198.44711	194.80479	150.37361	
620	6.190	198.53320	195.01118	293.07574	198.51280	194.80797	150.34953	
621	6.200	198.52826	195.01048	293.07837	198.47978	194.82207	150.37465	
622	6.210	198.53564	195.01155	293.07443	198.51901	194.80931	150.32726	
623	6.220	198.53810	195.01190	293.07312	198.51822	194.80461	150.35509	
624	6.230	198.53320	195.01118	293.07574	198.53185	194.80466	150.34576	
625	6.240	198.53810	195.01190	293.07312	198.50766	194.80177	150.33067	
626	6.250	198.52478	195.01437	293.06674	198.54080	194.81992	150.35567	
627	6.260	198.53810	195.01190	293.07312	198.55113	194.81561	150.33488	
628	6.270	198.53810	195.01190	293.07312	198.44873	194.80922	150.38179	
629	6.280	198.53320	195.01118	293.07574	198.48730	194.81441	150.38000	
630	6.290	198.53320	195.01118	293.07574	198.44833	194.80228	150.35822	
631	6.300	198.52826	195.01048	293.07837	198.43047	194.80052	150.36429	
632	6.310	198.52826	195.01048	293.07837	198.41713	194.80051	150.35916	
633	6.320	198.51566	195.01039	293.07971	198.41525	194.79855	150.35173	
634	6.330	198.52052	195.01109	293.07712	198.43422	194.80469	150.36105	
635	6.340	198.51320	195.01004	293.08099	198.47202	194.80666	150.35010	
636	6.350	198.53810	195.01190	293.07312	198.45784	194.80795	150.34717	
637	6.360	198.53810	195.01190	293.07312	198.51883	194.81891	150.34055	
638	6.370	198.52339	195.00978	293.08096	198.49123	194.79865	150.33426	
639	6.380	198.53810	195.01190	293.07312	198.47202	194.80666	150.35010	
640	6.390	198.53810	195.01190	293.07312	198.47751	194.79729	150.35594	
641	6.400	198.53810	195.01190	293.07312	198.46046	194.79659	150.36031	
642	6.410	198.53810	195.01190	293.07312	198.50749	194.80286	150.37628	
643	6.420	198.53810	195.01190	293.07312	198.50107	194.80038	150.36028	
644	6.430	198.53548	195.01239	293.07187	198.49184	194.79721	150.36455	
645	6.440	198.53810	195.01190	293.07312	198.50816	194.80635	150.36800	
646	6.450	198.54897	195.01184	293.07007	198.49954	194.79712	150.35785	
647	6.460	198.53810	195.01190	293.07312	198.50565	194.80197	150.37451	
648	6.470	198.53810	195.01190	293.07312	198.49979	194.79820	150.36356	
649	6.480	198.53810	195.01190	293.07312	198.49184	194.79721	150.36455	
650	6.490	198.53810	195.01190	293.07312	198.48367	194.79150	150.35349	
651	6.500	198.51607	195.00871	293.08487	198.48730	194.79321	150.35698	
652	6.510	198.53810	195.01190	293.07312	198.49098	194.79500	150.36047	
653	6.520	198.53810	195.01190	293.07312	198.45949	194.79793	150.36263	
654	6.530	198.53810	195.01190	293.07312	198.46605	194.79564	150.35918	
655	6.540	198.53810	195.01190	293.07312	198.43977	194.80127	150.36662	
656	6.550	198.53548	195.01239	293.07187	198.47499	194.79890	150.36220	
657	6.560	198.53320	195.01118	293.07574	198.47490	194.80243	150.36858	
658	6.570	198.53564	195.01155	293.07443	198.45941	194.80153	150.36899	
659	6.580	198.53320	195.01118	293.07574	198.49464	194.79674	150.36397	
660	6.590	198.53810	195.01190	293.07312	198.45883	194.79222	150.35223	
661	6.600	198.53810	195.01190	293.07312	198.50993	194.80008	150.35699	
662	6.610	198.53810	195.01190	293.07312	198.49644	194.79758	150.36572	
663	6.620	198.53810	195.01190	293.07312	198.48874	194.80008	150.36578	
664	6.630	198.53810	195.01190	293.07312	198.50171	194.80148	150.35866	
665	6.640	198.53810	195.01190	293.07312	198.52986	194.80977	150.35103	
666	6.650	198.53810	195.01190	293.07312	198.47580	194.79886	150.34755	
667	6.660	198.53810	195.01190	293.07312	198.51231	194.81764	150.37032	
668	6.670	198.53810	195.01190	293.07312	198.48201	194.79308	150.35477	
669	6.680	198.53810	195.01190	293.07312	198.51973	194.80084	150.34480	
670	6.690	198.53810	195.01190	293.07312	198.49086	194.80463	150.34122	
671	6.700	198.53810	195.01190	293.07312	198.47885	194.80174	150.37141	
672	6.710	198.53564	195.01155	293.07443	198.48987	194.80000	150.34383	
673	6.720	198.53810	195.01190	293.07312	198.47270	194.80775	150.34843	
674	6.730	198.52582	195.01013	293.07968	198.47784	194.80669	150.38016	
675	6.740	198.53810	195.01190	293.07312	198.49011	194.79538	150.32462	
676	6.750	198.53810	195.01190	293.07312	198.49339	194.80305	150.33499	
677	6.760	198.53810	195.01190	293.07312	198.51070	194.81073	150.36145	
678	6.770	198.53810	195.01190	293.07312	198.45175	194.80515	150.37479	
679	6.780	198.53810	195.01190	293.07312	198.47314	194.80626	150.37898	
680	6.790	198.53810	195.01190	293.07312	198.50903	194.81348	150.33340	
